# Blender 3.6.4
# www.blender.org
o Cone
v 0.000000 0.402773 -0.379474
v 0.072108 0.402773 -0.372183
v 0.141444 0.402773 -0.350588
v 0.205345 0.402773 -0.315521
v 0.261355 0.402773 -0.268329
v 0.307321 0.402773 -0.210824
v 0.341477 0.402773 -0.145218
v 0.362510 0.402773 -0.074032
v 0.369612 0.402773 0.000000
v 0.362510 0.402773 0.074032
v 0.341477 0.402773 0.145218
v 0.307321 0.402773 0.210824
v 0.261355 0.402773 0.268329
v 0.205345 0.402773 0.315521
v 0.141444 0.402773 0.350588
v 0.072108 0.402773 0.372183
v 0.000000 0.402773 0.379474
v -0.072108 0.402773 0.372183
v -0.141444 0.402773 0.350588
v -0.205345 0.402773 0.315521
v -0.261355 0.402773 0.268329
v -0.307321 0.402773 0.210824
v -0.341477 0.402773 0.145218
v -0.362510 0.402773 0.074032
v -0.369612 0.402773 0.000000
v -0.362510 0.402773 -0.074032
v -0.341477 0.402773 -0.145218
v -0.307321 0.402773 -0.210824
v -0.261355 0.402773 -0.268329
v -0.205345 0.402773 -0.315521
v -0.141444 0.402773 -0.350588
v -0.072108 0.402773 -0.372183
v 0.000000 1.597227 0.000000
vn 0.0959 0.3014 -0.9487
vn 0.2836 0.3008 -0.9105
vn 0.4590 0.2998 -0.8363
vn 0.6150 0.2985 -0.7299
vn 0.7458 0.2971 -0.5962
vn 0.8473 0.2959 -0.4411
vn 0.9164 0.2949 -0.2708
vn 0.9513 0.2944 -0.0913
vn 0.9513 0.2944 0.0913
vn 0.9164 0.2949 0.2708
vn 0.8473 0.2959 0.4411
vn 0.7458 0.2971 0.5962
vn 0.6150 0.2985 0.7299
vn 0.4590 0.2998 0.8363
vn 0.2836 0.3008 0.9105
vn 0.0959 0.3014 0.9487
vn -0.0959 0.3014 0.9487
vn -0.2836 0.3008 0.9105
vn -0.4590 0.2998 0.8363
vn -0.6150 0.2985 0.7299
vn -0.7458 0.2971 0.5962
vn -0.8473 0.2959 0.4411
vn -0.9164 0.2949 0.2708
vn -0.9513 0.2944 0.0913
vn -0.9513 0.2944 -0.0913
vn -0.9164 0.2949 -0.2708
vn -0.8473 0.2959 -0.4411
vn -0.7458 0.2971 -0.5962
vn -0.6150 0.2985 -0.7299
vn -0.4590 0.2998 -0.8363
vn -0.0000 -1.0000 -0.0000
vn -0.2836 0.3008 -0.9105
vn -0.0959 0.3014 -0.9487
s 0
f 1//1 33//1 2//1
f 2//2 33//2 3//2
f 3//3 33//3 4//3
f 4//4 33//4 5//4
f 5//5 33//5 6//5
f 6//6 33//6 7//6
f 7//7 33//7 8//7
f 8//8 33//8 9//8
f 9//9 33//9 10//9
f 10//10 33//10 11//10
f 11//11 33//11 12//11
f 12//12 33//12 13//12
f 13//13 33//13 14//13
f 14//14 33//14 15//14
f 15//15 33//15 16//15
f 16//16 33//16 17//16
f 17//17 33//17 18//17
f 18//18 33//18 19//18
f 19//19 33//19 20//19
f 20//20 33//20 21//20
f 21//21 33//21 22//21
f 22//22 33//22 23//22
f 23//23 33//23 24//23
f 24//24 33//24 25//24
f 25//25 33//25 26//25
f 26//26 33//26 27//26
f 27//27 33//27 28//27
f 28//28 33//28 29//28
f 29//29 33//29 30//29
f 30//30 33//30 31//30
f 1//31 2//31 3//31 4//31 5//31 6//31 7//31 8//31 9//31 10//31 11//31 12//31 13//31 14//31 15//31 16//31 17//31 18//31 19//31 20//31 21//31 22//31 23//31 24//31 25//31 26//31 27//31 28//31 29//31 30//31 31//31 32//31
f 31//32 33//32 32//32
f 32//33 33//33 1//33
o Cylinder
v 0.000000 -0.444583 -0.352358
v 0.000000 0.444583 -0.352358
v 0.066801 -0.444583 -0.345588
v 0.066801 0.444583 -0.345588
v 0.131036 -0.444583 -0.325537
v 0.131036 0.444583 -0.325537
v 0.190234 -0.444583 -0.292975
v 0.190234 0.444583 -0.292975
v 0.242122 -0.444583 -0.249155
v 0.242122 0.444583 -0.249155
v 0.284706 -0.444583 -0.195760
v 0.284706 0.444583 -0.195760
v 0.316348 -0.444583 -0.134842
v 0.316348 0.444583 -0.134842
v 0.335833 -0.444583 -0.068742
v 0.335833 0.444583 -0.068742
v 0.342413 -0.444583 0.000000
v 0.342413 0.444583 0.000000
v 0.335833 -0.444583 0.068742
v 0.335833 0.444583 0.068742
v 0.316348 -0.444583 0.134842
v 0.316348 0.444583 0.134842
v 0.284706 -0.444583 0.195760
v 0.284706 0.444583 0.195760
v 0.242122 -0.444583 0.249155
v 0.242122 0.444583 0.249155
v 0.190234 -0.444583 0.292975
v 0.190234 0.444583 0.292975
v 0.131036 -0.444583 0.325537
v 0.131036 0.444583 0.325537
v 0.066801 -0.444583 0.345588
v 0.066801 0.444583 0.345588
v 0.000000 -0.444583 0.352358
v 0.000000 0.444583 0.352358
v -0.066801 -0.444583 0.345588
v -0.066801 0.444583 0.345588
v -0.131036 -0.444583 0.325537
v -0.131036 0.444583 0.325537
v -0.190234 -0.444583 0.292975
v -0.190234 0.444583 0.292975
v -0.242122 -0.444583 0.249155
v -0.242122 0.444583 0.249155
v -0.284706 -0.444583 0.195760
v -0.284706 0.444583 0.195760
v -0.316348 -0.444583 0.134842
v -0.316348 0.444583 0.134842
v -0.335833 -0.444583 0.068742
v -0.335833 0.444583 0.068742
v -0.342413 -0.444583 0.000000
v -0.342413 0.444583 0.000000
v -0.335833 -0.444583 -0.068742
v -0.335833 0.444583 -0.068742
v -0.316348 -0.444583 -0.134842
v -0.316348 0.444583 -0.134842
v -0.284706 -0.444583 -0.195760
v -0.284706 0.444583 -0.195760
v -0.242122 -0.444583 -0.249155
v -0.242122 0.444583 -0.249155
v -0.190234 -0.444583 -0.292975
v -0.190234 0.444583 -0.292975
v -0.131036 -0.444583 -0.325537
v -0.131036 0.444583 -0.325537
v -0.066801 -0.444583 -0.345588
v -0.066801 0.444583 -0.345588
vn 0.1008 -0.0000 -0.9949
vn 0.2980 -0.0000 -0.9546
vn 0.4819 -0.0000 -0.8762
vn 0.6452 -0.0000 -0.7640
vn 0.7818 -0.0000 -0.6235
vn 0.8874 -0.0000 -0.4610
vn 0.9592 -0.0000 -0.2828
vn 0.9955 -0.0000 -0.0953
vn 0.9955 -0.0000 0.0953
vn 0.9592 -0.0000 0.2828
vn 0.8874 -0.0000 0.4610
vn 0.7818 -0.0000 0.6235
vn 0.6452 -0.0000 0.7640
vn 0.4819 -0.0000 0.8762
vn 0.2980 -0.0000 0.9546
vn 0.1008 -0.0000 0.9949
vn -0.1008 -0.0000 0.9949
vn -0.2980 -0.0000 0.9546
vn -0.4819 -0.0000 0.8762
vn -0.6452 -0.0000 0.7640
vn -0.7818 -0.0000 0.6235
vn -0.8874 -0.0000 0.4610
vn -0.9592 -0.0000 0.2828
vn -0.9955 -0.0000 0.0953
vn -0.9955 -0.0000 -0.0953
vn -0.9592 -0.0000 -0.2828
vn -0.8874 -0.0000 -0.4610
vn -0.7818 -0.0000 -0.6235
vn -0.6452 -0.0000 -0.7640
vn -0.4819 -0.0000 -0.8762
vn -0.0000 1.0000 -0.0000
vn -0.2980 -0.0000 -0.9546
vn -0.1008 -0.0000 -0.9949
vn -0.0000 -1.0000 -0.0000
s 0
f 34//34 35//34 37//34 36//34
f 36//35 37//35 39//35 38//35
f 38//36 39//36 41//36 40//36
f 40//37 41//37 43//37 42//37
f 42//38 43//38 45//38 44//38
f 44//39 45//39 47//39 46//39
f 46//40 47//40 49//40 48//40
f 48//41 49//41 51//41 50//41
f 50//42 51//42 53//42 52//42
f 52//43 53//43 55//43 54//43
f 54//44 55//44 57//44 56//44
f 56//45 57//45 59//45 58//45
f 58//46 59//46 61//46 60//46
f 60//47 61//47 63//47 62//47
f 62//48 63//48 65//48 64//48
f 64//49 65//49 67//49 66//49
f 66//50 67//50 69//50 68//50
f 68//51 69//51 71//51 70//51
f 70//52 71//52 73//52 72//52
f 72//53 73//53 75//53 74//53
f 74//54 75//54 77//54 76//54
f 76//55 77//55 79//55 78//55
f 78//56 79//56 81//56 80//56
f 80//57 81//57 83//57 82//57
f 82//58 83//58 85//58 84//58
f 84//59 85//59 87//59 86//59
f 86//60 87//60 89//60 88//60
f 88//61 89//61 91//61 90//61
f 90//62 91//62 93//62 92//62
f 92//63 93//63 95//63 94//63
f 37//64 35//64 97//64 95//64 93//64 91//64 89//64 87//64 85//64 83//64 81//64 79//64 77//64 75//64 73//64 71//64 69//64 67//64 65//64 63//64 61//64 59//64 57//64 55//64 53//64 51//64 49//64 47//64 45//64 43//64 41//64 39//64
f 94//65 95//65 97//65 96//65
f 96//66 97//66 35//66 34//66
f 34//67 36//67 38//67 40//67 42//67 44//67 46//67 48//67 50//67 52//67 54//67 56//67 58//67 60//67 62//67 64//67 66//67 68//67 70//67 72//67 74//67 76//67 78//67 80//67 82//67 84//67 86//67 88//67 90//67 92//67 94//67 96//67
o Cube_1
v -0.070331 -0.568223 -0.300358
v -0.070331 -0.199962 -0.300358
v -0.185606 -0.568223 -0.233804
v -0.185606 -0.199962 -0.233804
v -0.201097 -0.568223 -0.526852
v -0.201097 -0.199962 -0.526852
v -0.316373 -0.568223 -0.460298
v -0.316373 -0.199962 -0.460298
vn 0.5000 -0.0000 0.8660
vn -0.8660 -0.0000 0.5000
vn -0.5000 -0.0000 -0.8660
vn 0.8660 -0.0000 -0.5000
vn -0.0000 -1.0000 -0.0000
vn -0.0000 1.0000 -0.0000
s 0
f 98//68 99//68 101//68 100//68
f 100//69 101//69 105//69 104//69
f 104//70 105//70 103//70 102//70
f 102//71 103//71 99//71 98//71
f 100//72 104//72 102//72 98//72
f 105//73 101//73 99//73 103//73
o Cube_2
v 0.295283 -0.568223 0.089271
v 0.295283 -0.199962 0.089271
v 0.295283 -0.568223 -0.043838
v 0.295283 -0.199962 -0.043838
v 0.556816 -0.568223 0.089271
v 0.556816 -0.199962 0.089271
v 0.556816 -0.568223 -0.043838
v 0.556816 -0.199962 -0.043838
vn -1.0000 -0.0000 -0.0000
vn -0.0000 -0.0000 -1.0000
vn 1.0000 -0.0000 -0.0000
vn -0.0000 -0.0000 1.0000
vn -0.0000 -1.0000 -0.0000
vn -0.0000 1.0000 -0.0000
s 0
f 106//74 107//74 109//74 108//74
f 108//75 109//75 113//75 112//75
f 112//76 113//76 111//76 110//76
f 110//77 111//77 107//77 106//77
f 108//78 112//78 110//78 106//78
f 113//79 109//79 107//79 111//79
o Cube_3
v -0.224952 -0.568223 0.211088
v -0.224952 -0.199962 0.211088
v -0.109677 -0.568223 0.277642
v -0.109677 -0.199962 0.277642
v -0.355719 -0.568223 0.437581
v -0.355719 -0.199962 0.437581
v -0.240443 -0.568223 0.504136
v -0.240443 -0.199962 0.504136
vn 0.5000 -0.0000 -0.8660
vn 0.8660 -0.0000 0.5000
vn -0.5000 -0.0000 0.8660
vn -0.8660 -0.0000 -0.5000
vn -0.0000 -1.0000 -0.0000
vn -0.0000 1.0000 -0.0000
s 0
f 114//80 115//80 117//80 116//80
f 116//81 117//81 121//81 120//81
f 120//82 121//82 119//82 118//82
f 118//83 119//83 115//83 114//83
f 116//84 120//84 118//84 114//84
f 121//85 117//85 115//85 119//85
